<svg width="80" height="80" viewBox="0 0 80 80" fill="none" xmlns="http://www.w3.org/2000/svg">
<g clip-path="url(#clip0_49_556)">
<path d="M74.4988 54.6865L73.0256 53.2133C58.5957 67.6431 27.4577 53.2133 27.4577 53.2133C27.4577 53.2133 13.0279 22.0752 27.4577 7.64539L25.9845 6.17218C24.2573 4.44497 21.4633 4.44497 19.736 6.17218L16.2308 9.6774C1.09233 24.8159 1.09233 49.3524 16.2308 64.4655C31.3693 79.604 55.9059 79.604 71.019 64.4655L74.5242 60.9603C76.226 59.2077 76.226 56.4137 74.4988 54.6865Z" fill="#F7A565"/>
<path d="M20.4726 60.211C33.0457 72.7841 53.7315 72.7739 66.3046 60.2008L73.0255 53.4063V53.2132L70.0029 50.1906C57.1402 63.0533 32.8171 50.1906 32.8171 50.1906C32.8171 50.1906 17.5668 23.4798 30.4294 10.6172L27.4576 7.65045H27.229L20.4548 14.3917C7.88173 26.9647 7.90205 47.6404 20.4751 60.2135" fill="#F8F6EE"/>
<path d="M23.0734 57.5617C33.9955 68.4838 51.9382 68.5245 62.8602 57.6024L70.0028 50.4091V50.1906L30.4217 10.6273L30.1271 10.6807L23.0226 17.7851C12.1006 28.7072 12.1514 46.6397 23.0734 57.5617Z" fill="#F5564E"/>
<path d="M35.2302 27.1273C35.2302 27.8616 34.9385 28.5658 34.4193 29.085C33.9 29.6042 33.1958 29.8959 32.4615 29.8959C31.7273 29.8959 31.0231 29.6042 30.5038 29.085C29.9846 28.5658 29.6929 27.8616 29.6929 27.1273C29.6929 26.393 29.9846 25.6888 30.5038 25.1696C31.0231 24.6504 31.7273 24.3587 32.4615 24.3587C33.1958 24.3587 33.9 24.6504 34.4193 25.1696C34.9385 25.6888 35.2302 26.393 35.2302 27.1273ZM29.0579 43.993C29.7922 43.993 30.4964 43.7013 31.0156 43.1821C31.5348 42.6629 31.8265 41.9587 31.8265 41.2244C31.8265 40.4901 31.5348 39.7859 31.0156 39.2667C30.4964 38.7474 29.7922 38.4558 29.0579 38.4558C28.3236 38.4558 27.6194 38.7474 27.1002 39.2667C26.581 39.7859 26.2893 40.4901 26.2893 41.2244C26.2893 41.9587 26.581 42.6629 27.1002 43.1821C27.6194 43.7013 28.3236 43.993 29.0579 43.993ZM39.4212 54.3562C40.1555 54.3562 40.8597 54.0646 41.3789 53.5453C41.8981 53.0261 42.1898 52.3219 42.1898 51.5876C42.1898 50.8533 41.8981 50.1491 41.3789 49.6299C40.8597 49.1107 40.1555 48.819 39.4212 48.819C38.6869 48.819 37.9827 49.1107 37.4635 49.6299C36.9443 50.1491 36.6526 50.8533 36.6526 51.5876C36.6526 52.3219 36.9443 53.0261 37.4635 53.5453C37.9827 54.0646 38.6869 54.3562 39.4212 54.3562ZM42.8502 40.2846C43.5845 40.2846 44.2887 39.9929 44.8079 39.4737C45.3271 38.9544 45.6188 38.2502 45.6188 37.516C45.6188 36.7817 45.3271 36.0775 44.8079 35.5582C44.2887 35.039 43.5845 34.7473 42.8502 34.7473C42.1159 34.7473 41.4117 35.039 40.8925 35.5582C40.3733 36.0775 40.0816 36.7817 40.0816 37.516C40.0816 38.2502 40.3733 38.9544 40.8925 39.4737C41.4117 39.9929 42.1159 40.2846 42.8502 40.2846ZM56.2615 48.184C56.2615 48.9183 55.9698 49.6225 55.4506 50.1417C54.9314 50.6609 54.2272 50.9526 53.4929 50.9526C52.7586 50.9526 52.0544 50.6609 51.5352 50.1417C51.0159 49.6225 50.7243 48.9183 50.7243 48.184C50.7243 47.4497 51.0159 46.7455 51.5352 46.2263C52.0544 45.7071 52.7586 45.4154 53.4929 45.4154C54.2272 45.4154 54.9314 45.7071 55.4506 46.2263C55.9698 46.7455 56.2615 47.4497 56.2615 48.184Z" fill="#140519"/>
</g>
<defs>
<clipPath id="clip0_49_556">
<rect width="71.6667" height="71.6667" fill="white" transform="translate(4.16675 4.16666)"/>
</clipPath>
</defs>
</svg>
