<svg width="460" height="130" viewBox="0 0 460 130" fill="none" xmlns="http://www.w3.org/2000/svg">
<g clip-path="url(#clip0_14_503)">
<path d="M88.0405 98.9542L87.2242 96.6489C64.6444 104.645 38.9467 73.6217 38.9467 73.6217C38.9467 73.6217 39.394 33.3401 61.9739 25.3442L61.1575 23.0389C60.2004 20.3361 57.2403 18.9242 54.5375 19.8813L49.0525 21.8236C25.3638 30.2123 12.9645 56.2079 21.366 79.8697C29.7546 103.558 55.7502 115.958 79.4121 107.556L84.897 105.614C87.5857 104.617 88.9976 101.657 88.0405 98.9542Z" fill="#F7A565"/>
<path d="M28.0347 77.5774C35.0017 97.2518 56.9228 107.694 76.5972 100.727L87.1513 96.9251L87.2489 96.7206L85.5739 91.9908C65.4464 99.1183 46.1769 73.1993 46.1769 73.1993C46.1769 73.1993 43.5178 37.1936 63.6453 30.0661L61.996 25.4212L61.7538 25.3057L51.1701 29.0245C31.4957 35.9915 21.069 57.907 28.0361 77.5814" fill="#F8F6EE"/>
<path d="M32.136 76.1024C38.1882 93.1933 57.1773 102.303 74.2682 96.2513L85.4705 92.2396L85.5809 92.0082L63.639 30.0905L63.2999 29.9981L52.1829 33.9348C35.092 39.987 26.0838 59.0115 32.136 76.1024Z" fill="#F5564E"/>
<path d="M60.3786 49.9526C60.0075 50.7305 59.3426 51.3292 58.5302 51.6169C57.7177 51.9046 56.8242 51.8578 56.0463 51.4868C55.2683 51.1157 54.6696 50.4508 54.3819 49.6383C54.0942 48.8259 54.141 47.9324 54.5121 47.1544C54.8832 46.3765 55.5481 45.7778 56.3605 45.4901C57.173 45.2024 58.0665 45.2492 58.8444 45.6203C59.6224 45.9913 60.2211 46.6562 60.5088 47.4687C60.7965 48.2812 60.7497 49.1747 60.3786 49.9526ZM45.3164 64.7021C46.0944 65.0732 46.9879 65.12 47.8004 64.8323C48.6128 64.5446 49.2777 63.9459 49.6488 63.168C50.0198 62.39 50.0667 61.4965 49.779 60.6841C49.4913 59.8716 48.8926 59.2067 48.1146 58.8356C47.3367 58.4646 46.4432 58.4178 45.6307 58.7055C44.8182 58.9932 44.1533 59.5919 43.7823 60.3698C43.4112 61.1477 43.3644 62.0412 43.6521 62.8537C43.9398 63.6662 44.5385 64.3311 45.3164 64.7021ZM51.059 80.9186C51.8369 81.2897 52.7304 81.3365 53.5429 81.0488C54.3554 80.7611 55.0203 80.1624 55.3913 79.3844C55.7624 78.6065 55.8092 77.713 55.5215 76.9005C55.2338 76.0881 54.6351 75.4232 53.8572 75.0521C53.0792 74.681 52.1857 74.6342 51.3733 74.9219C50.5608 75.2096 49.8959 75.8083 49.5248 76.5863C49.1538 77.3642 49.1069 78.2577 49.3947 79.0702C49.6824 79.8826 50.2811 80.5475 51.059 80.9186ZM61.8029 67.743C62.5808 68.114 63.4743 68.1609 64.2868 67.8731C65.0993 67.5854 65.7642 66.9868 66.1352 66.2088C66.5063 65.4309 66.5531 64.5374 66.2654 63.7249C65.9777 62.9124 65.379 62.2475 64.6011 61.8765C63.8231 61.5054 62.9296 61.4586 62.1172 61.7463C61.3047 62.034 60.6398 62.6327 60.2687 63.4106C59.8977 64.1886 59.8508 65.0821 60.1386 65.8945C60.4263 66.707 61.0249 67.3719 61.8029 67.743ZM72.0198 82.8894C71.6487 83.6673 70.9838 84.266 70.1713 84.5537C69.3589 84.8414 68.4654 84.7946 67.6874 84.4236C66.9095 84.0525 66.3108 83.3876 66.0231 82.5751C65.7354 81.7626 65.7822 80.8692 66.1533 80.0912C66.5243 79.3133 67.1892 78.7146 68.0017 78.4269C68.8142 78.1392 69.7077 78.186 70.4856 78.557C71.2635 78.9281 71.8622 79.593 72.1499 80.4055C72.4377 81.218 72.3908 82.1114 72.0198 82.8894Z" fill="#140519"/>
</g>
<path d="M129.04 85.18L116.2 49.42C115.92 48.62 115.54 48 115.06 47.56C114.62 47.08 114 46.72 113.2 46.48L111.76 46V45.4H129.04V46L127.18 46.54C126.26 46.78 125.74 47.2 125.62 47.8C125.54 48.4 125.64 49.14 125.92 50.02L134.8 76.36L143.74 49.96C144.06 49.04 144.2 48.28 144.16 47.68C144.16 47.08 143.7 46.66 142.78 46.42L141.22 46V45.4H149.62V46L148 46.48C147.24 46.68 146.7 47.04 146.38 47.56C146.06 48.04 145.76 48.68 145.48 49.48L133.48 85.18H129.04ZM161.98 55.24C164.58 55.24 166.8 55.78 168.64 56.86C170.48 57.9 171.88 59.34 172.84 61.18C173.84 62.98 174.34 65.04 174.34 67.36C174.34 67.8 174.32 68.26 174.28 68.74C174.24 69.18 174.16 69.58 174.04 69.94H156.16C156.2 74.26 156.96 77.38 158.44 79.3C159.96 81.18 162.2 82.12 165.16 82.12C167.16 82.12 168.78 81.8 170.02 81.16C171.26 80.52 172.42 79.58 173.5 78.34L174.1 78.88C172.86 81.08 171.2 82.8 169.12 84.04C167.08 85.28 164.62 85.9 161.74 85.9C158.9 85.9 156.38 85.3 154.18 84.1C151.98 82.86 150.26 81.1 149.02 78.82C147.78 76.54 147.16 73.82 147.16 70.66C147.16 67.38 147.88 64.6 149.32 62.32C150.76 60 152.6 58.24 154.84 57.04C157.12 55.84 159.5 55.24 161.98 55.24ZM161.8 56.44C160.64 56.44 159.64 56.8 158.8 57.52C158 58.2 157.36 59.44 156.88 61.24C156.44 63 156.2 65.5 156.16 68.74H166.42C166.82 64.38 166.66 61.24 165.94 59.32C165.22 57.4 163.84 56.44 161.8 56.44ZM191.61 74.62C188.85 74.62 186.51 74.16 184.59 73.24V75.28C184.59 76.52 185.21 77.26 186.45 77.5L197.73 79.6C199.61 79.96 201.31 80.44 202.83 81.04C204.35 81.6 205.57 82.42 206.49 83.5C207.41 84.54 207.87 85.98 207.87 87.82C207.87 89.78 207.23 91.58 205.95 93.22C204.67 94.9 202.77 96.24 200.25 97.24C197.77 98.28 194.67 98.8 190.95 98.8C187.75 98.8 185.21 98.46 183.33 97.78C181.45 97.14 180.11 96.3 179.31 95.26C178.55 94.22 178.17 93.12 178.17 91.96C178.17 90.52 178.65 89.06 179.61 87.58C180.61 86.14 181.83 84.98 183.27 84.1C182.03 83.62 181.13 83 180.57 82.24C180.01 81.48 179.73 80.66 179.73 79.78C179.73 78.98 179.93 78.24 180.33 77.56C180.77 76.84 181.29 76.12 181.89 75.4L183.87 72.88C180.95 71.2 179.49 68.56 179.49 64.96C179.49 62.08 180.51 59.74 182.55 57.94C184.63 56.14 187.67 55.24 191.67 55.24C193.71 55.24 195.49 55.48 197.01 55.96C198.57 56.44 199.85 57.12 200.85 58C202.13 57.8 203.33 57.48 204.45 57.04C205.61 56.56 206.65 55.92 207.57 55.12L208.41 55.72V58.78H201.63C203.07 60.38 203.79 62.44 203.79 64.96C203.79 67.76 202.75 70.08 200.67 71.92C198.63 73.72 195.61 74.62 191.61 74.62ZM191.55 73.42C193.15 73.42 194.31 72.76 195.03 71.44C195.79 70.12 196.17 67.92 196.17 64.84C196.17 61.76 195.79 59.6 195.03 58.36C194.31 57.08 193.19 56.44 191.67 56.44C190.19 56.44 189.07 57.1 188.31 58.42C187.55 59.7 187.17 61.88 187.17 64.96C187.17 68.04 187.51 70.22 188.19 71.5C188.91 72.78 190.03 73.42 191.55 73.42ZM182.61 90.04C182.61 92.4 183.33 94.18 184.77 95.38C186.25 96.58 188.57 97.18 191.73 97.18C195.05 97.18 197.55 96.64 199.23 95.56C200.91 94.48 201.75 92.96 201.75 91C201.75 89.88 201.33 88.98 200.49 88.3C199.69 87.62 198.31 87.1 196.35 86.74L185.49 84.7C185.17 84.62 184.85 84.54 184.53 84.46C183.97 85.26 183.51 86.16 183.15 87.16C182.79 88.2 182.61 89.16 182.61 90.04ZM224.099 74.62C221.339 74.62 218.999 74.16 217.079 73.24V75.28C217.079 76.52 217.699 77.26 218.939 77.5L230.219 79.6C232.099 79.96 233.799 80.44 235.319 81.04C236.839 81.6 238.059 82.42 238.979 83.5C239.899 84.54 240.359 85.98 240.359 87.82C240.359 89.78 239.719 91.58 238.439 93.22C237.159 94.9 235.259 96.24 232.739 97.24C230.259 98.28 227.159 98.8 223.439 98.8C220.239 98.8 217.699 98.46 215.819 97.78C213.939 97.14 212.599 96.3 211.799 95.26C211.039 94.22 210.659 93.12 210.659 91.96C210.659 90.52 211.139 89.06 212.099 87.58C213.099 86.14 214.319 84.98 215.759 84.1C214.519 83.62 213.619 83 213.059 82.24C212.499 81.48 212.219 80.66 212.219 79.78C212.219 78.98 212.419 78.24 212.819 77.56C213.259 76.84 213.779 76.12 214.379 75.4L216.359 72.88C213.439 71.2 211.979 68.56 211.979 64.96C211.979 62.08 212.999 59.74 215.039 57.94C217.119 56.14 220.159 55.24 224.159 55.24C226.199 55.24 227.979 55.48 229.499 55.96C231.059 56.44 232.339 57.12 233.339 58C234.619 57.8 235.819 57.48 236.939 57.04C238.099 56.56 239.139 55.92 240.059 55.12L240.899 55.72V58.78H234.119C235.559 60.38 236.279 62.44 236.279 64.96C236.279 67.76 235.239 70.08 233.159 71.92C231.119 73.72 228.099 74.62 224.099 74.62ZM224.039 73.42C225.639 73.42 226.799 72.76 227.519 71.44C228.279 70.12 228.659 67.92 228.659 64.84C228.659 61.76 228.279 59.6 227.519 58.36C226.799 57.08 225.679 56.44 224.159 56.44C222.679 56.44 221.559 57.1 220.799 58.42C220.039 59.7 219.659 61.88 219.659 64.96C219.659 68.04 219.999 70.22 220.679 71.5C221.399 72.78 222.519 73.42 224.039 73.42ZM215.099 90.04C215.099 92.4 215.819 94.18 217.259 95.38C218.739 96.58 221.059 97.18 224.219 97.18C227.539 97.18 230.039 96.64 231.719 95.56C233.399 94.48 234.239 92.96 234.239 91C234.239 89.88 233.819 88.98 232.979 88.3C232.179 87.62 230.799 87.1 228.839 86.74L217.979 84.7C217.659 84.62 217.339 84.54 217.019 84.46C216.459 85.26 215.999 86.16 215.639 87.16C215.279 88.2 215.099 89.16 215.099 90.04ZM251.294 52.12C249.934 52.12 248.774 51.7 247.814 50.86C246.894 49.98 246.434 48.88 246.434 47.56C246.434 46.2 246.894 45.1 247.814 44.26C248.774 43.42 249.934 43 251.294 43C252.654 43 253.794 43.42 254.714 44.26C255.634 45.1 256.094 46.2 256.094 47.56C256.094 48.88 255.634 49.98 254.714 50.86C253.794 51.7 252.654 52.12 251.294 52.12ZM244.214 85V84.4L245.054 84.16C245.854 83.92 246.394 83.56 246.674 83.08C246.994 82.6 247.154 81.96 247.154 81.16V62.38C247.154 61.54 246.994 60.92 246.674 60.52C246.394 60.08 245.854 59.78 245.054 59.62L244.214 59.44V58.84L255.194 55.3L255.794 55.9L255.614 64.42V81.22C255.614 82.02 255.754 82.66 256.034 83.14C256.354 83.62 256.894 83.98 257.654 84.22L258.254 84.4V85H244.214ZM277.17 55.24C279.77 55.24 281.99 55.78 283.83 56.86C285.67 57.9 287.07 59.34 288.03 61.18C289.03 62.98 289.53 65.04 289.53 67.36C289.53 67.8 289.51 68.26 289.47 68.74C289.43 69.18 289.35 69.58 289.23 69.94H271.35C271.39 74.26 272.15 77.38 273.63 79.3C275.15 81.18 277.39 82.12 280.35 82.12C282.35 82.12 283.97 81.8 285.21 81.16C286.45 80.52 287.61 79.58 288.69 78.34L289.29 78.88C288.05 81.08 286.39 82.8 284.31 84.04C282.27 85.28 279.81 85.9 276.93 85.9C274.09 85.9 271.57 85.3 269.37 84.1C267.17 82.86 265.45 81.1 264.21 78.82C262.97 76.54 262.35 73.82 262.35 70.66C262.35 67.38 263.07 64.6 264.51 62.32C265.95 60 267.79 58.24 270.03 57.04C272.31 55.84 274.69 55.24 277.17 55.24ZM276.99 56.44C275.83 56.44 274.83 56.8 273.99 57.52C273.19 58.2 272.55 59.44 272.07 61.24C271.63 63 271.39 65.5 271.35 68.74H281.61C282.01 64.38 281.85 61.24 281.13 59.32C280.41 57.4 279.03 56.44 276.99 56.44ZM308.107 85V84.4L309.187 83.98C309.987 83.66 310.527 83.26 310.807 82.78C311.127 82.3 311.287 81.66 311.287 80.86V49.54C311.287 48.7 311.127 48.04 310.807 47.56C310.527 47.08 309.987 46.7 309.187 46.42L308.107 46V45.4H325.327C330.207 45.4 333.727 46.3 335.887 48.1C338.047 49.86 339.127 52.1 339.127 54.82C339.127 56.86 338.327 58.72 336.727 60.4C335.167 62.04 332.467 63.2 328.627 63.88C333.027 64.36 336.247 65.52 338.287 67.36C340.327 69.16 341.347 71.36 341.347 73.96C341.347 75.24 341.067 76.54 340.507 77.86C339.947 79.14 338.987 80.32 337.627 81.4C336.307 82.48 334.487 83.36 332.167 84.04C329.847 84.68 326.907 85 323.347 85H308.107ZM320.167 63.82H322.747C325.427 63.82 327.347 63.2 328.507 61.96C329.707 60.72 330.307 58.56 330.307 55.48C330.307 52.28 329.767 50 328.687 48.64C327.607 47.28 325.847 46.6 323.407 46.6H320.167V63.82ZM320.167 83.8H323.167C326.167 83.8 328.387 83 329.827 81.4C331.307 79.8 332.047 77.3 332.047 73.9C332.047 70.7 331.347 68.42 329.947 67.06C328.547 65.7 326.247 65.02 323.047 65.02H320.167V83.8ZM352.246 52.12C350.886 52.12 349.726 51.7 348.766 50.86C347.846 49.98 347.386 48.88 347.386 47.56C347.386 46.2 347.846 45.1 348.766 44.26C349.726 43.42 350.886 43 352.246 43C353.606 43 354.746 43.42 355.666 44.26C356.586 45.1 357.046 46.2 357.046 47.56C357.046 48.88 356.586 49.98 355.666 50.86C354.746 51.7 353.606 52.12 352.246 52.12ZM345.166 85V84.4L346.006 84.16C346.806 83.92 347.346 83.56 347.626 83.08C347.946 82.6 348.106 81.96 348.106 81.16V62.38C348.106 61.54 347.946 60.92 347.626 60.52C347.346 60.08 346.806 59.78 346.006 59.62L345.166 59.44V58.84L356.146 55.3L356.746 55.9L356.566 64.42V81.22C356.566 82.02 356.706 82.66 356.986 83.14C357.306 83.62 357.846 83.98 358.606 84.22L359.206 84.4V85H345.166ZM374.463 85.9C371.903 85.9 369.903 85.26 368.463 83.98C367.063 82.7 366.363 80.66 366.363 77.86V57.34H362.223V56.74L363.663 56.5C364.903 56.22 365.963 55.82 366.843 55.3C367.763 54.78 368.663 54.08 369.543 53.2L374.463 47.74H375.063L374.883 56.14H381.603V57.34H374.823V78.94C374.823 80.34 375.123 81.4 375.723 82.12C376.363 82.84 377.163 83.2 378.123 83.2C378.963 83.2 379.703 83 380.343 82.6C380.983 82.16 381.623 81.58 382.263 80.86L382.863 81.46C382.063 82.82 380.963 83.9 379.563 84.7C378.163 85.5 376.463 85.9 374.463 85.9ZM400.826 55.24C403.426 55.24 405.646 55.78 407.486 56.86C409.326 57.9 410.726 59.34 411.686 61.18C412.686 62.98 413.186 65.04 413.186 67.36C413.186 67.8 413.166 68.26 413.126 68.74C413.086 69.18 413.006 69.58 412.886 69.94H395.006C395.046 74.26 395.806 77.38 397.286 79.3C398.806 81.18 401.046 82.12 404.006 82.12C406.006 82.12 407.626 81.8 408.866 81.16C410.106 80.52 411.266 79.58 412.346 78.34L412.946 78.88C411.706 81.08 410.046 82.8 407.966 84.04C405.926 85.28 403.466 85.9 400.586 85.9C397.746 85.9 395.226 85.3 393.026 84.1C390.826 82.86 389.106 81.1 387.866 78.82C386.626 76.54 386.006 73.82 386.006 70.66C386.006 67.38 386.726 64.6 388.166 62.32C389.606 60 391.446 58.24 393.686 57.04C395.966 55.84 398.346 55.24 400.826 55.24ZM400.646 56.44C399.486 56.44 398.486 56.8 397.646 57.52C396.846 58.2 396.206 59.44 395.726 61.24C395.286 63 395.046 65.5 395.006 68.74H405.266C405.666 64.38 405.506 61.24 404.786 59.32C404.066 57.4 402.686 56.44 400.646 56.44ZM427.757 85.9C425.797 85.9 424.037 85.66 422.477 85.18C420.917 84.74 419.477 84.18 418.157 83.5L418.217 76.36H418.817L420.857 79.96C421.737 81.56 422.697 82.76 423.737 83.56C424.817 84.32 426.177 84.7 427.817 84.7C429.737 84.7 431.277 84.28 432.437 83.44C433.637 82.56 434.237 81.4 434.237 79.96C434.237 78.64 433.817 77.56 432.977 76.72C432.137 75.88 430.577 75.12 428.297 74.44L425.777 73.66C423.337 72.94 421.417 71.82 420.017 70.3C418.617 68.78 417.917 66.92 417.917 64.72C417.917 62.08 418.957 59.84 421.037 58C423.117 56.16 426.097 55.24 429.977 55.24C431.537 55.24 432.997 55.42 434.357 55.78C435.757 56.1 437.097 56.6 438.377 57.28L438.017 63.76H437.417L435.317 60.04C434.557 58.72 433.797 57.8 433.037 57.28C432.317 56.72 431.217 56.44 429.737 56.44C428.377 56.44 427.097 56.82 425.897 57.58C424.697 58.34 424.097 59.42 424.097 60.82C424.097 62.18 424.597 63.26 425.597 64.06C426.637 64.86 428.157 65.6 430.157 66.28L432.857 67.06C435.737 67.94 437.797 69.16 439.037 70.72C440.277 72.24 440.897 74.08 440.897 76.24C440.897 79.16 439.737 81.5 437.417 83.26C435.137 85.02 431.917 85.9 427.757 85.9Z" fill="#140519"/>
<defs>
<clipPath id="clip0_14_503">
<rect width="108.187" height="108.199" fill="white" transform="translate(5 12)"/>
</clipPath>
</defs>
</svg>
